HIERARCHY
ROOT Hips
{
	OFFSET 0.000000 0.000000 0.000000 
	CHANNELS 6 Xposition Yposition Zposition Zrotation Yrotation Xrotation
	JOINT LeftUpLeg
	{
		OFFSET 1.363060 -1.794630 0.839290 
		CHANNELS 3 Zrotation Yrotation Xrotation
		JOINT LeftLeg
		{
			OFFSET 2.448110 -6.726130 0.000000 
			CHANNELS 3 Zrotation Yrotation Xrotation
			JOINT LeftFoot
			{
				OFFSET 2.562200 -7.039590 0.000000 
				CHANNELS 3 Zrotation Yrotation Xrotation
				JOINT LeftToeBase
				{
					OFFSET 0.157640 -0.433110 2.322550 
					CHANNELS 3 Zrotation Yrotation Xrotation
					End Site
					{
						OFFSET 0.000000 0.000000 0.000000 
					}
				}
			}
		}
	}
	JOINT RightUpLeg
	{
		OFFSET -1.305520 -1.794630 0.839290 
		CHANNELS 3 Zrotation Yrotation Xrotation
		JOINT RightLeg
		{
			OFFSET -2.542530 -6.985550 0.000000 
			CHANNELS 3 Zrotation Yrotation Xrotation
			JOINT RightFoot
			{
				OFFSET -2.568260 -7.056230 0.000000 
				CHANNELS 3 Zrotation Yrotation Xrotation
				JOINT RightToeBase
				{
					OFFSET -0.164730 -0.452590 2.363150 
					CHANNELS 3 Zrotation Yrotation Xrotation
					End Site
					{
						OFFSET 0.000000 0.000000 0.000000 
					}
				}
			}
		}
	}
	JOINT Spine
	{
		OFFSET 0.028270 2.035590 -0.193380 
		CHANNELS 3 Zrotation Yrotation Xrotation
		JOINT Spine1
		{
			OFFSET 0.056720 2.048850 -0.042750 
			CHANNELS 3 Zrotation Yrotation Xrotation
			JOINT Neck1
			{
				OFFSET -0.054170 1.746240 0.172020 
				CHANNELS 3 Zrotation Yrotation Xrotation
				JOINT Head
				{
					OFFSET 0.104070 1.761360 -0.123970 
					CHANNELS 3 Zrotation Yrotation Xrotation
					End Site
					{
						OFFSET 0.000000 0.000000 0.000000 
					}
				}
			}
			JOINT LeftArm
			{
				OFFSET 3.362410 1.200890 -0.311210 
				CHANNELS 3 Zrotation Yrotation Xrotation
				JOINT LeftForeArm
				{
					OFFSET 4.983000 -0.000000 -0.000000 
					CHANNELS 3 Zrotation Yrotation Xrotation
					JOINT LeftHand
					{
						OFFSET 3.483560 -0.000000 -0.000000 
						CHANNELS 3 Zrotation Yrotation Xrotation
						JOINT LeftHandIndex1
						{
							OFFSET 0.715260 -0.000000 -0.000000 
							CHANNELS 3 Zrotation Yrotation Xrotation
							End Site
							{
								OFFSET 0.000000 0.000000 0.000000 
							}
						}
					}
				}
			}
			JOINT RightArm
			{
				OFFSET -3.136600 1.374050 -0.404650 
				CHANNELS 3 Zrotation Yrotation Xrotation
				JOINT RightForeArm
				{
					OFFSET -5.241900 -0.000000 -0.000000 
					CHANNELS 3 Zrotation Yrotation Xrotation
					JOINT RightHand
					{
						OFFSET -3.444170 -0.000000 -0.000000 
						CHANNELS 3 Zrotation Yrotation Xrotation
						JOINT RightHandIndex1
						{
							OFFSET -0.622530 -0.000000 -0.000000 
							CHANNELS 3 Zrotation Yrotation Xrotation
							End Site
							{
								OFFSET 0.000000 0.000000 0.000000 
							}
						}
					}
				}
			}
		}
	}
}
MOTION
Frames: 12
Frame Time: 0.041667
12.067033 17.982824 -42.956149 -9.508597 82.050949 -10.131325 -5.179867 -27.226619 -13.350228 -3.015042 6.991894 16.140764 -8.778629 24.174165 2.223277 1.555100 -7.870300 -22.320900 31.392839 3.078436 19.372822 2.836679 -2.826430 15.210790 5.620174 -19.826125 -1.390256 -0.000500 0.145300 -0.399100 5.017772 3.241983 2.798777 -5.395204 1.625843 -11.697565 25.475903 -14.259841 14.532212 7.128300 -5.891500 6.860000 -87.608704 19.430884 -9.937161 25.354924 -25.863917 -6.437383 1.802408 0.694162 11.621831 -7.125000 0.000000 0.000000 79.404046 -4.354431 30.331299 -25.130495 28.557374 -7.660572 1.080166 0.263442 12.529009 7.125000 0.000000 0.000000 
12.248446 17.985885 -43.003122 -10.806934 81.418718 -11.438453 -5.341357 -26.667973 -13.191649 -2.922079 7.138890 16.488994 -8.886845 24.623079 3.061877 2.003600 -8.873500 -25.400500 31.648916 3.640132 19.533578 2.622749 -3.271907 16.328750 5.772007 -20.345468 -0.438426 -0.016500 0.829200 -2.279000 4.851778 3.328258 2.589666 -5.705973 1.608715 -11.742888 25.652464 -14.335654 14.750877 7.182900 -5.894100 6.927600 -87.285102 19.529729 -10.261272 25.417135 -25.941008 -6.456270 1.787961 0.704117 11.725300 -7.125000 0.000000 0.000000 79.871845 -4.851148 29.635785 -25.150043 28.563562 -7.643079 1.080296 0.257077 12.901584 7.125000 0.000000 0.000000 
12.445871 17.998364 -43.045856 -8.461986 81.352818 -9.222926 -5.936926 -26.396752 -12.617592 -2.929121 7.101427 16.446510 -8.948103 24.962359 3.685402 2.076600 -9.023900 -25.870200 31.241471 3.578468 18.844273 2.167882 -4.108271 18.686167 5.633705 -19.833489 -0.347140 -0.009800 0.638200 -1.753700 4.573113 3.221157 2.502027 -5.673020 1.537874 -11.710562 25.351211 -14.511962 15.070865 7.022200 -5.947600 7.005500 -87.004699 19.563550 -10.406859 25.443215 -25.963349 -6.454690 1.778501 0.709625 11.714217 -7.125000 0.000000 0.000000 80.084449 -5.405081 29.239220 -25.190501 28.596018 -7.640446 1.079836 0.255999 13.012481 7.125000 0.000000 0.000000 
12.649771 18.012844 -43.084469 -6.199751 81.316896 -7.108306 -6.582222 -25.895680 -12.186852 -2.927857 7.139326 16.706739 -8.603518 24.252472 4.094648 1.535000 -7.821600 -22.173600 30.709075 3.411939 18.289325 1.772382 -4.749333 20.537216 5.497290 -19.353456 0.140146 -0.010000 0.646300 -1.776100 4.248039 3.102279 2.484884 -5.621299 1.471881 -11.618053 25.223719 -14.675171 15.353867 6.945200 -5.994900 7.094700 -86.617706 19.495589 -10.350769 25.409335 -25.910828 -6.423335 1.763290 0.728173 11.404027 -7.125000 0.000000 0.000000 80.355886 -6.109130 28.815819 -25.310953 28.719046 -7.690378 1.075670 0.258810 13.085209 7.125000 0.000000 0.000000 
12.859674 18.119620 -43.102481 -4.248425 80.877043 -5.042717 -7.049947 -25.236673 -11.614920 -2.964729 7.084709 16.728130 -8.273419 23.518911 4.478674 0.843500 -5.858200 -16.373600 30.525586 7.681291 19.510837 1.650570 -5.222578 22.775605 2.607356 -10.725844 -8.277870 -6.476200 -14.874500 46.864200 4.010360 3.090555 2.366212 -5.564571 1.455838 -11.494329 25.276411 -14.742294 15.625640 6.977300 -6.000300 7.192500 -86.388467 19.419602 -10.718738 25.393689 -25.907750 -6.415516 1.761544 0.740932 11.327183 -7.125000 0.000000 0.000000 80.543231 -6.592616 28.615626 -25.425056 28.849381 -7.766057 1.066697 0.278173 12.956276 7.125000 0.000000 0.000000 
13.046386 18.070411 -43.151455 -1.359427 80.562708 -2.275770 -7.721479 -24.614572 -11.280291 -2.966823 7.066351 16.789824 -8.093058 23.305274 5.210813 0.732400 -5.467600 -15.247300 29.152831 2.403078 16.105823 0.633430 -6.353196 25.085104 5.110559 -18.339241 4.106288 -0.446100 4.285400 -11.880900 4.024339 3.022445 2.231616 -5.311257 1.435392 -11.449968 25.405420 -14.761747 15.734625 7.067300 -6.009600 7.231300 -86.387581 19.331333 -10.961879 25.373822 -25.894025 -6.405209 1.759692 0.747869 11.134409 -7.125000 0.000000 0.000000 80.610075 -7.081275 28.010931 -25.337158 28.759387 -7.726316 1.069126 0.276271 13.182599 7.125000 0.000000 0.000000 
13.235805 18.085715 -43.196897 2.285112 80.548979 1.253128 -8.572894 -24.078035 -10.702683 -3.010528 6.968925 16.680109 -7.846383 22.953033 5.965264 0.925000 -6.127400 -17.154500 28.225169 2.437163 14.858299 0.015281 -7.209539 27.645795 4.921415 -17.820464 5.087231 -0.244000 3.179000 -8.777600 3.836360 2.900240 2.131862 -5.109737 1.370419 -11.468434 25.239458 -14.872729 15.888191 7.012200 -6.064600 7.267600 -86.199812 19.161616 -10.776371 25.304772 -25.806779 -6.364027 1.742130 0.769600 10.792388 -7.125000 0.000000 0.000000 80.365934 -7.735077 28.377612 -25.378115 28.806235 -7.767919 1.069439 0.279341 12.288442 7.125000 0.000000 0.000000 
13.423576 18.104787 -43.239513 5.705712 80.533915 4.582202 -9.457781 -23.362418 -10.373536 -3.006226 7.002961 16.912585 -7.601595 22.548882 6.408844 1.346200 -7.345600 -20.743400 27.259510 2.287742 13.709682 -0.577963 -7.943838 29.893042 4.725776 -17.395314 6.573312 -0.150200 2.497000 -6.881500 3.404064 2.768561 2.051400 -5.012595 1.291952 -11.470487 25.157748 -15.147851 16.161666 6.956000 -6.167700 7.395800 -85.862979 18.958320 -10.575424 25.253290 -25.740938 -6.332517 1.717721 0.799703 10.656424 -7.125000 0.000000 0.000000 80.552233 -8.370861 27.683075 -25.435304 28.862647 -7.795002 1.069469 0.272089 12.424991 7.125000 0.000000 0.000000 
13.605814 18.124329 -43.271299 8.372204 80.407244 7.092636 -10.229357 -22.466271 -9.838639 -3.070549 6.870432 16.703359 -7.554609 22.552748 6.651515 1.736800 -8.294900 -23.613300 26.546590 2.345637 12.417729 -1.338554 -8.859174 32.710463 4.598447 -17.410315 8.307753 -0.170800 2.662300 -7.340100 3.204172 2.630601 2.000194 -4.794216 1.221733 -11.551873 24.915734 -15.299516 16.376333 6.840800 -6.225100 7.459100 -85.700190 18.762763 -10.464035 25.252383 -25.732750 -6.320455 1.697213 0.813529 10.540146 -7.125000 0.000000 0.000000 80.734379 -9.052208 26.872893 -25.484346 28.913512 -7.812592 1.068898 0.264991 12.782709 7.125000 0.000000 0.000000 
13.780753 18.141046 -43.305086 11.156422 80.370057 9.688419 -11.020799 -21.815917 -9.190490 -3.158513 6.694740 16.454124 -7.384542 22.163128 6.593748 1.789100 -8.412300 -23.973600 25.871372 2.444333 11.026680 -2.169996 -9.795495 35.643971 4.552950 -17.879376 10.058322 -0.153700 2.526500 -6.963100 2.854119 2.423869 1.950421 -4.655078 1.105882 -11.687217 24.606805 -15.393251 16.548571 6.694200 -6.260500 7.483300 -85.509665 18.539989 -10.362460 25.275893 -25.756364 -6.315034 1.681093 0.813821 10.391599 -7.125000 0.000000 0.000000 80.948436 -9.591636 26.346218 -25.455172 28.879803 -7.796091 1.073033 0.251569 12.809293 7.125000 0.000000 0.000000 
13.953455 18.165062 -43.332633 13.519888 80.146457 12.179525 -11.678573 -20.971918 -8.870577 -3.250780 6.505039 16.119090 -7.216706 21.791335 6.608035 2.012400 -8.891800 -25.457500 25.207722 2.896951 9.262108 -3.020677 -10.740632 38.644711 4.394685 -18.057246 11.829429 -0.107300 2.112300 -5.816000 2.395767 2.345135 1.800374 -4.542453 1.059061 -11.664980 24.843515 -15.586914 16.530854 6.755000 -6.337400 7.526200 -85.173187 18.183696 -10.258863 25.315314 -25.803805 -6.320578 1.670746 0.811313 10.388017 -7.125000 0.000000 0.000000 81.292745 -9.948114 25.690580 -25.343972 28.752365 -7.732890 1.081565 0.233431 12.866603 7.125000 0.000000 0.000000 
14.123215 18.182838 -43.350528 16.019621 79.971496 14.677622 -12.402138 -19.978574 -8.470007 -3.342662 6.289846 15.721938 -7.116357 21.613412 6.680376 2.383500 -9.622900 -27.763900 24.502889 3.202545 7.484757 -3.921805 -11.658162 41.794360 4.037371 -17.604962 13.706412 -0.091100 1.946900 -5.359000 2.051465 2.138897 1.936768 -4.262327 0.981247 -11.561390 25.354710 -15.550546 16.374034 6.988100 -6.324400 7.534600 -84.909816 17.674081 -10.482745 25.370601 -25.894157 -6.344088 1.671469 0.804909 10.521074 -7.125000 0.000000 0.000000 81.461237 -10.101055 25.256430 -25.159611 28.561084 -7.649880 1.087822 0.233347 13.085073 7.125000 0.000000 0.000000 
